<svg width="89" height="71" viewBox="0 0 89 71" fill="none" xmlns="http://www.w3.org/2000/svg">
<path d="M0.0795914 47.8822C0.0795914 32.8463 11.047 16.9259 32.9818 0.121009L43.8607 8.08122C33.424 20.2869 28.2056 30.812 28.2056 39.6567C28.2056 45.1404 30.5052 52.1277 35.1045 60.6185L9.10115 70.9668C3.08678 63.3604 0.0795914 55.6655 0.0795914 47.8822ZM45.1874 47.8822C45.1874 32.8463 56.1548 16.9259 78.0896 0.121009L88.9685 8.08122C78.5318 20.2869 73.3134 30.812 73.3134 39.6567C73.3134 45.1404 75.6131 52.1277 80.2123 60.6185L54.209 70.9668C48.1946 63.3604 45.1874 55.6655 45.1874 47.8822Z" fill="#E5F1F3"/>
</svg>
