<svg width="34" height="34" viewBox="0 0 34 34" fill="none" xmlns="http://www.w3.org/2000/svg">
<path d="M11.3071 16.9604L11.3071 11.307C11.3071 8.18465 13.8383 5.6535 16.9606 5.6535V5.6535C20.0829 5.6535 22.6141 8.18465 22.6141 11.307L22.6141 16.9604" stroke="#7FABB7" stroke-width="1.65468" stroke-linecap="round"/>
<path d="M5.40048 15.7547C5.52051 14.3144 5.58052 13.5943 6.05548 13.1572C6.53045 12.7202 7.2531 12.7202 8.6984 12.7202H25.2222C26.6675 12.7202 27.3902 12.7202 27.8651 13.1572C28.3401 13.5943 28.4001 14.3144 28.5201 15.7547L29.5313 27.8886C29.6012 28.7271 29.6361 29.1464 29.3903 29.4135C29.1445 29.6806 28.7238 29.6806 27.8823 29.6806H6.03829C5.19684 29.6806 4.77612 29.6806 4.53032 29.4135C4.28451 29.1464 4.31945 28.7271 4.38933 27.8886L5.40048 15.7547Z" fill="#7FABB7"/>
</svg>
