<svg id="Layer_1" data-name="Layer 1" xmlns="http://www.w3.org/2000/svg" viewBox="0 0 449.3 97.38"><defs><style>.cls-1{fill:#231f20;}.cls-2{fill:#fff;}</style></defs><path class="cls-1" d="M119.55,34.52v1.74a14.1,14.1,0,0,1,4.08-3.57,10.41,10.41,0,0,1,4.8-1q5.88,0,8.64,4.56a12.57,12.57,0,0,1,4.15-3.54,12.38,12.38,0,0,1,5.4-1,12.8,12.8,0,0,1,6.12,1.44,8.69,8.69,0,0,1,4.14,4.58,18.32,18.32,0,0,1,.78,6.25V54.31c0,1.65,0,2.65.06,3,.19,1.44.71,2.17,1.54,2.17a5.68,5.68,0,0,0,1.25-.21,5.59,5.59,0,0,1,1.25-.21c1.38,0,2.08.6,2.08,1.8q0,2.1-2.4,2.1a26.36,26.36,0,0,1-2.73-.21,26.5,26.5,0,0,0-2.79-.21q-1,0-3,.21T150,63q-2.52,0-2.52-2.1,0-1.8,1.92-1.8.24,0,1.2.12a3.12,3.12,0,0,0,1,.12,1.23,1.23,0,0,0,1.29-1,29.3,29.3,0,0,0,.33-5.1V45.56a20.79,20.79,0,0,0-.63-6,5.46,5.46,0,0,0-2.36-3,7.32,7.32,0,0,0-3.95-1.08c-2.82,0-4.8,1-5.91,2.94C139.43,40,139,42.7,139,46.58v4.26a55.12,55.12,0,0,0,.26,7c.19,1,.66,1.42,1.42,1.42a6.79,6.79,0,0,0,1-.12,6.54,6.54,0,0,1,1.05-.12,1.91,1.91,0,0,1,1.41.56,1.85,1.85,0,0,1,.57,1.39q0,1.95-2.82,1.95a21.83,21.83,0,0,1-2.68-.24,21.74,21.74,0,0,0-2.66-.24,17.59,17.59,0,0,0-2.77.24,17,17,0,0,1-2.64.24q-2.46,0-2.46-2a1.62,1.62,0,0,1,1.8-1.86,2.53,2.53,0,0,1,1,.16,4.88,4.88,0,0,0,1.26.26c1,0,1.46-1,1.5-3.08l.18-2.84V44.83q0-5.25-1.41-7.3c-.94-1.36-2.61-2.05-5-2.05a7,7,0,0,0-6.06,2.9q-1.74,2.35-1.74,8.2v8c0,1.61,0,2.55.06,2.84.16,1.36.6,2.05,1.32,2.05a5.38,5.38,0,0,0,1.26-.34,1.4,1.4,0,0,0,.36-.08h.42q2.34,0,2.34,2T123.33,63a21.77,21.77,0,0,1-2.52-.18,30.49,30.49,0,0,0-3.48-.24q-.72,0-2.64.18-2.58.24-3.12.24-2.4,0-2.4-2c0-1.24.77-1.86,2.32-1.86h.37a1.62,1.62,0,0,0,.37.06l1.53.3a.35.35,0,0,0,.24.06q1.65,0,1.77-2.94V43.94a42.67,42.67,0,0,0-.27-6.36A1.39,1.39,0,0,0,114,36.32a15,15,0,0,0-1.68.3,5.16,5.16,0,0,1-1,.12q-2.22,0-2.22-1.92t2.46-2q.66,0,1.8.12a19.26,19.26,0,0,0,2,.12h1.08l1.44-.24h.18Q119.55,32.78,119.55,34.52Z"/><path class="cls-1" d="M180.69,45.32v7.8c0,2,0,3.19.06,3.55q.3,2.7,1.62,2.7a9.25,9.25,0,0,0,1.51-.3,2.46,2.46,0,0,1,.89-.12c1.53,0,2.29.66,2.29,2a1.8,1.8,0,0,1-.76,1.44,2.93,2.93,0,0,1-1.89.6,23.34,23.34,0,0,1-2.92-.27,23.62,23.62,0,0,0-2.93-.27,28.57,28.57,0,0,0-3.49.24,30.94,30.94,0,0,1-3.13.3c-1.6,0-2.41-.68-2.41-2s.69-2,2.06-2a8.19,8.19,0,0,1,1.42.18,8.28,8.28,0,0,0,1.43.18c1,0,1.55-1.28,1.75-3.84V40.1c-.2-2.52-.8-3.78-1.81-3.78a6.34,6.34,0,0,0-1.37.21,6.11,6.11,0,0,1-1.3.21c-1.45,0-2.18-.64-2.18-1.92s.88-2,2.64-2a14.94,14.94,0,0,1,1.62.06q1.92.24,2.46.24a10.86,10.86,0,0,0,1.47-.15,10.86,10.86,0,0,1,1.47-.15q1.74,0,1.74,2.34c0,.16,0,.4,0,.72a5.86,5.86,0,0,0,0,.72c0,.32-.07,1.56-.1,3.72C180.71,41.92,180.69,43.6,180.69,45.32ZM177.57,29.6a3.38,3.38,0,0,1-3.36-3.36,3.14,3.14,0,0,1,1-2.34,3.41,3.41,0,0,1,4.74,0,3.14,3.14,0,0,1,1,2.34,3.38,3.38,0,0,1-3.36,3.36Z"/><path class="cls-1" d="M203.36,34.55v1.71A11.61,11.61,0,0,1,213,31.7a12.12,12.12,0,0,1,6.12,1.65,8.63,8.63,0,0,1,3.9,4.11,14.23,14.23,0,0,1,.84,5.34V54.2c0,1.73,0,2.75.06,3.07q.3,2,1.62,2a8.68,8.68,0,0,0,1.41-.15,8.43,8.43,0,0,1,1.23-.15,1.9,1.9,0,0,1,1.35.54,1.75,1.75,0,0,1,.57,1.32,1.87,1.87,0,0,1-.72,1.5,2.63,2.63,0,0,1-1.74.6,25.36,25.36,0,0,1-2.76-.24,29.11,29.11,0,0,0-3.6-.24,22.78,22.78,0,0,0-2.58.12q-3,.36-3.18.36-2.4,0-2.4-2.1c0-1.24.69-1.86,2.08-1.86a5.75,5.75,0,0,1,1.1.12,10.45,10.45,0,0,0,1.47.24c1,0,1.51-1.1,1.59-3.31V44.78a21.14,21.14,0,0,0-.3-4.38,5.77,5.77,0,0,0-2.33-3.54,7.62,7.62,0,0,0-4.48-1.38q-4.78,0-6.88,3.42-1.43,2.34-1.43,8v8a11.93,11.93,0,0,0,.36,3.61,1.32,1.32,0,0,0,1.32,1,5.82,5.82,0,0,0,1.32-.21,5.93,5.93,0,0,1,1.38-.21q1.86,0,1.86,2T207.74,63q-.48,0-3.12-.36a21.88,21.88,0,0,0-2.94-.18,31.11,31.11,0,0,0-3.36.24q-2.64.3-3,.3-2.52,0-2.52-2A1.71,1.71,0,0,1,194.75,59a6.36,6.36,0,0,1,1.13.18,7.59,7.59,0,0,0,1.62.18c1.23,0,1.86-1.16,1.9-3.48v-16a7.72,7.72,0,0,0-.52-2.79,1.43,1.43,0,0,0-1.38-.75,7.67,7.67,0,0,0-1.25.15,7.67,7.67,0,0,1-1.25.15c-1.47,0-2.2-.64-2.2-1.92s.9-2,2.7-2a2.52,2.52,0,0,1,.6.06l2.22.24a8.31,8.31,0,0,0,1.68-.15l1.62-.15Q203.36,32.72,203.36,34.55Z"/><path class="cls-1" d="M248,31.7a9.82,9.82,0,0,1,8.88,4.62V30.26a20,20,0,0,0-.12-2.94q-.3-1.86-1.68-1.86a7.16,7.16,0,0,0-1.35.18,7.16,7.16,0,0,1-1.35.18q-2.22,0-2.22-1.92t3-2q.48,0,1.74.12l2,.18a11.6,11.6,0,0,0,1.56-.15,11.6,11.6,0,0,1,1.56-.15q1.68,0,1.68,2.4V25q-.06.18-.12,3.18c0,.24-.06,1.79-.18,4.63-.08,2-.12,3.53-.12,4.57V53.3a23.9,23.9,0,0,0,.37,4.92,1.36,1.36,0,0,0,1.47,1,4.83,4.83,0,0,0,1.22-.12,13.25,13.25,0,0,1,1.34-.12c1.51,0,2.26.66,2.26,2s-.9,2-2.7,2a16.69,16.69,0,0,1-1.83-.15,16.69,16.69,0,0,0-1.83-.15q-.18,0-1.38.12a5.29,5.29,0,0,1-1.26.18q-1.62,0-1.62-2.16V59.49q-3.17,4.26-9.21,4.26a12.16,12.16,0,0,1-9.82-4.44q-3.71-4.44-3.71-11.65t3.66-11.61A12.13,12.13,0,0,1,248,31.7Zm8.64,21.18a43.93,43.93,0,0,0,.24-5.1,32.1,32.1,0,0,0-.3-5.46,7.53,7.53,0,0,0-2.6-4.68,8.51,8.51,0,0,0-5.56-2,7.8,7.8,0,0,0-6.61,3.18q-2.38,3.18-2.39,8.7,0,5.72,2.48,9a8,8,0,0,0,6.77,3.27,7.94,7.94,0,0,0,5.43-1.9A7.48,7.48,0,0,0,256.59,52.88Z"/><path class="cls-1" d="M286.83,31.7a10.54,10.54,0,0,1,6.7,2.1v-.24q0-2.22,1.92-2.22a1.72,1.72,0,0,1,2,1.92c0,.24,0,.84-.1,1.8a15,15,0,0,0-.2,2.4q0,.72.15,2.1t.15,2.1q0,2.28-1.95,2.28a1.74,1.74,0,0,1-2-1.92V40A3.85,3.85,0,0,0,291.46,37a8.53,8.53,0,0,0-4.71-1.29,7.43,7.43,0,0,0-4.62,1.41,4.25,4.25,0,0,0-1.86,3.51q0,3.84,5.28,4.56l3.48.48q10.2,1.38,10.2,8.46a8.56,8.56,0,0,1-3.29,7,13.28,13.28,0,0,1-8.61,2.67,13.67,13.67,0,0,1-8.62-2.82v1.14q0,2.16-2,2.16-2.22,0-2.22-2.46a30.74,30.74,0,0,0,.36-3.12,11.87,11.87,0,0,0,.12-1.68,14.35,14.35,0,0,0-.24-2.7,11.26,11.26,0,0,1-.24-2c0-1.39.64-2.1,1.92-2.1.84,0,1.37.21,1.59.6a9.36,9.36,0,0,1,.39,3.19,5,5,0,0,0,2.7,4.2,12.67,12.67,0,0,0,6.72,1.62,7.66,7.66,0,0,0,4.86-1.5,4.61,4.61,0,0,0,1.92-3.78q0-4.09-6.48-4.75a25.93,25.93,0,0,1-9.42-2.43q-3.24-1.77-3.24-6.21a8.41,8.41,0,0,1,3.17-6.81A12.55,12.55,0,0,1,286.83,31.7Z"/><path class="cls-1" d="M315.64,34.46v1.92a10.73,10.73,0,0,1,9.19-4.68,11.91,11.91,0,0,1,9.54,4.14q3.54,4.14,3.54,11.22,0,7.62-3.75,12.16a12.38,12.38,0,0,1-10.05,4.53,10.8,10.8,0,0,1-8.47-3.66v5a21.55,21.55,0,0,0,.12,2.94c.25,1.24.82,1.86,1.75,1.86a6.66,6.66,0,0,0,1.25-.18,6.81,6.81,0,0,1,1.27-.18,1.72,1.72,0,0,1,1.92,2q0,2-2.52,2a22.45,22.45,0,0,1-2.69-.24,31.54,31.54,0,0,0-3.94-.18,19.9,19.9,0,0,0-2.4.12c-1.59.2-2.65.3-3.16.3a2.59,2.59,0,0,1-1.74-.62,1.88,1.88,0,0,1-.72-1.45c0-1.26.68-1.89,2-1.89a6.63,6.63,0,0,1,1.12.15,8.26,8.26,0,0,0,1.49.21,1.33,1.33,0,0,0,1.4-1.17,46.11,46.11,0,0,0,.32-6.51V39c0-1.84-.55-2.76-1.54-2.76a6,6,0,0,0-1.28.21,6,6,0,0,1-1.34.21c-1.46,0-2.2-.66-2.2-2s.88-1.92,2.64-1.92q.66,0,1.44.06,1.5.12,2.22.12.54,0,1.56-.09t1.5-.09Q315.64,32.78,315.64,34.46Zm.91,7.32a27.24,27.24,0,0,0-.61,5.7c0,.16,0,.46-.05.9v.84a18.43,18.43,0,0,0,.66,5.85,7,7,0,0,0,2.61,3.28,8.73,8.73,0,0,0,11.52-1.71q2.37-3.16,2.37-9,0-12-8.52-12a8.16,8.16,0,0,0-5.13,1.74A7.43,7.43,0,0,0,316.55,41.78Z"/><path class="cls-1" d="M371,63.51c-3.28,0-5.31-1.42-6.06-4.26q-3.06,4.5-9.61,4.5a11.83,11.83,0,0,1-7.77-2.4,7.9,7.9,0,0,1-2.91-6.42,7.79,7.79,0,0,1,4.26-7.33,11.16,11.16,0,0,1,2.79-1.17q1.17-.27,4.71-.69,5-.54,6.57-1.5c1-.64,1.54-1.82,1.54-3.54a4.77,4.77,0,0,0-1.71-3.87,7.34,7.34,0,0,0-4.78-1.41,9.17,9.17,0,0,0-5,1.5q-.9.6-.9,1.26,0,.24.54.6a2.34,2.34,0,0,1,.84,2,2.54,2.54,0,0,1-.87,2,3.16,3.16,0,0,1-2.19.78,3.49,3.49,0,0,1-2.61-1.08,3.64,3.64,0,0,1-1.05-2.64q0-3.36,3.33-5.76a13.43,13.43,0,0,1,8.07-2.4q10.94,0,10.93,10.48v12.1a23.8,23.8,0,0,0,.12,3.41q.36,2.1,2,2.1c1.4,0,2.1-1.28,2.1-3.82V53.05c0-1.27.61-1.91,1.83-1.91s1.95,1,1.95,2.88v3.73Q377,63.51,371,63.51Zm-6.67-11.95V47.3A7.64,7.64,0,0,1,361.59,49a27,27,0,0,1-5.23.84c-4.55.45-6.82,2.12-6.82,5a4.37,4.37,0,0,0,1.65,3.61,7,7,0,0,0,4.47,1.32A8.83,8.83,0,0,0,362,57.6,8.1,8.1,0,0,0,364.36,51.56Z"/><path class="cls-1" d="M400.56,42.92c0-1.6,1-2.52,3-2.76a4.74,4.74,0,0,0-2-3.3,7.56,7.56,0,0,0-4.42-1.2,8,8,0,0,0-6.66,3.3A14.06,14.06,0,0,0,388,47.72c0,3.76.79,6.72,2.37,8.86a7.71,7.71,0,0,0,6.57,3.21,7.31,7.31,0,0,0,4.59-1.5,7.55,7.55,0,0,0,2.68-4.15q.6-2.1.72-2.4a2.07,2.07,0,0,1,1.92-1.2,2.32,2.32,0,0,1,1.68.66,2.28,2.28,0,0,1,.66,1.68,8.89,8.89,0,0,1-1,3.6A12.63,12.63,0,0,1,405.9,60a12,12,0,0,1-9.19,3.78,12.44,12.44,0,0,1-9.87-4.32q-3.75-4.32-3.75-11.35,0-7.44,3.87-11.91a12.93,12.93,0,0,1,10.29-4.47,12.21,12.21,0,0,1,8,2.61,8.21,8.21,0,0,1,3.18,6.63,5.44,5.44,0,0,1-1.23,3.66A4,4,0,0,1,404,46a3.54,3.54,0,0,1-2.49-.9A2.88,2.88,0,0,1,400.56,42.92Z"/><path class="cls-1" d="M443.6,45.08a7.38,7.38,0,0,1-.3,2.79q-.3.51-1.74.51H422.48a1.67,1.67,0,0,0-1,.21.87.87,0,0,0-.24.69,10.82,10.82,0,0,0,2.7,7.51,8.94,8.94,0,0,0,11.55,1.56,6.58,6.58,0,0,0,2.85-3.66l.54-1.75a1.86,1.86,0,0,1,2-1.44,2,2,0,0,1,2.22,2.28q0,3.91-4,6.94a14.42,14.42,0,0,1-9,3,12.67,12.67,0,0,1-10-4.23c-2.48-2.83-3.73-6.61-3.73-11.38s1.33-8.84,4-11.88a13,13,0,0,1,10.32-4.56,12.39,12.39,0,0,1,9.3,3.78A13.24,13.24,0,0,1,443.6,45.08Zm-21.78-1.56q0,.84,1.32.84h14.34q1.26,0,1.26-.84a7.46,7.46,0,0,0-2.4-5.52,7.82,7.82,0,0,0-5.64-2.34,9,9,0,0,0-6.12,2.43A7.14,7.14,0,0,0,421.82,43.52Z"/><path class="cls-1" d="M84,.55,64.27,22.83a1.63,1.63,0,0,1-1.85.41,49.72,49.72,0,0,0-38,0,1.63,1.63,0,0,1-1.85-.41L2.83.55A1.62,1.62,0,0,0,0,1.62V57.29a11.39,11.39,0,0,0,4.23,8.86L42.36,97a1.62,1.62,0,0,0,2,0L82.59,66.15a11.4,11.4,0,0,0,4.24-8.87V1.62A1.62,1.62,0,0,0,84,.55Z"/><path class="cls-2" d="M64.76,49.54A1.31,1.31,0,0,0,63.28,51v1.75a4.35,4.35,0,0,1-1.48,3.36,5.27,5.27,0,0,1-3.67,1.35,5.7,5.7,0,0,1-4.24-1.74,6,6,0,0,1-1.7-4.37,6.13,6.13,0,0,1,2.44-5.07A10,10,0,0,1,61,44.39q6.63,0,13.71,5.15,3.06,2.28,3.06,3.85A1.54,1.54,0,0,1,76,55.13a2.91,2.91,0,0,1-1.57-.7Q68,49.54,64.76,49.54Zm-31,2a5.16,5.16,0,0,1-1.62,3.85,5.59,5.59,0,0,1-7.77,0,5.15,5.15,0,0,1-1.61-3.85,5.51,5.51,0,0,1,5.5-5.5,5.53,5.53,0,0,1,5.5,5.5Z"/></svg>