<?xml version="1.0" encoding="utf-8"?>
<!-- Generator: Adobe Illustrator 26.3.1, SVG Export Plug-In . SVG Version: 6.00 Build 0)  -->
<svg version="1.1" id="Warstwa_1" xmlns="http://www.w3.org/2000/svg" xmlns:xlink="http://www.w3.org/1999/xlink" x="0px" y="0px"
	 viewBox="0 0 20 22" style="enable-background:new 0 0 20 22;" xml:space="preserve">
<style type="text/css">
	.st0{fill:#373535;}
</style>
<g>
	<path class="st0" d="M10,19.5c-0.2,0-0.3,0-0.5-0.1c-0.3-0.1-0.4-0.3-0.7-0.5L3,13.1c-1.8-1.8-2.1-4.8-0.5-6.9l0.4-0.5
		c0.9-1.3,2.4-1.9,4-1.8C8.1,4.1,9.3,4.8,10,5.9c0.7-1.1,1.9-1.8,3.2-1.9c1.6-0.2,3.1,0.5,4,1.8l0.4,0.5c1.5,2.1,1.3,5-0.5,6.9
		l-5.9,5.8c-0.2,0.2-0.4,0.4-0.7,0.5C10.3,19.4,10.2,19.5,10,19.5z M6.3,5.6C5.5,5.6,4.7,6,4.1,6.7L3.8,7.2
		c-1.1,1.4-0.9,3.4,0.4,4.7l5.9,5.8l5.9-5.8c1.3-1.2,1.4-3.3,0.4-4.7l-0.4-0.5c-0.6-0.8-1.5-1.2-2.5-1.1c-1,0.1-1.8,0.7-2.2,1.6
		C10.9,7.7,10.5,8,10,8C9.5,8,9.1,7.7,8.8,7.2C8.4,6.3,7.6,5.7,6.6,5.6C6.5,5.6,6.4,5.6,6.3,5.6z"/>
</g>
</svg>
