<svg width="20" height="21" viewBox="0 0 20 21" fill="none" xmlns="http://www.w3.org/2000/svg">
<path d="M3.75187 11.46L9.36951 16.9946C9.52589 17.1486 9.60407 17.2257 9.6904 17.2628C9.81657 17.3171 9.95951 17.3171 10.0857 17.2628C10.172 17.2257 10.2502 17.1486 10.4066 16.9946L16.0242 11.46C17.5191 9.98714 17.7026 7.63883 16.4545 5.95173L16.1076 5.48283C14.5649 3.39745 11.3496 3.73607 10.2752 6.09709C10.124 6.42929 9.65209 6.42929 9.50091 6.09709C8.42648 3.73607 5.21118 3.39745 3.66846 5.48283L3.32158 5.95173C2.07351 7.63883 2.25696 9.98714 3.75187 11.46Z" stroke="#7FABB7" stroke-width="1.57803"/>
</svg>
