<svg width="24" height="20" viewBox="0 0 24 20" fill="none" xmlns="http://www.w3.org/2000/svg">
<path d="M1 1H7.57391C8.73625 1 9.85099 1.42143 10.6729 2.17157C11.4948 2.92172 11.9565 3.93913 11.9565 5V19C11.9565 18.2044 11.6102 17.4413 10.9938 16.8787C10.3774 16.3161 9.54132 16 8.66957 16H1V1Z" stroke="#A5C3CB" stroke-width="2" stroke-linecap="round" stroke-linejoin="round"/>
<path d="M22.9131 1H16.3392C15.1768 1 14.0621 1.42143 13.2402 2.17157C12.4183 2.92172 11.9565 3.93913 11.9565 5V19C11.9565 18.2044 12.3028 17.4413 12.9193 16.8787C13.5357 16.3161 14.3717 16 15.2435 16H22.9131V1Z" stroke="#A5C3CB" stroke-width="2" stroke-linecap="round" stroke-linejoin="round"/>
</svg>
