<svg width="21" height="22" viewBox="0 0 21 22" fill="none" xmlns="http://www.w3.org/2000/svg">
<path d="M7 11L7 7.16667C7 5.23367 8.567 3.66667 10.5 3.66667V3.66667C12.433 3.66667 14 5.23367 14 7.16667L14 11" stroke="#07262F" stroke-width="1.43696" stroke-linecap="round"/>
<path d="M3.28952 10.896C3.38939 9.64048 3.43933 9.01272 3.85223 8.63136C4.26513 8.25 4.89488 8.25 6.15438 8.25H14.8456C16.1051 8.25 16.7349 8.25 17.1478 8.63136C17.5607 9.01272 17.6106 9.64049 17.7105 10.896L18.2516 17.6991C18.3094 18.425 18.3383 18.788 18.1249 19.019C17.9116 19.25 17.5474 19.25 16.8192 19.25H4.1808C3.45257 19.25 3.08845 19.25 2.8751 19.019C2.66175 18.788 2.69062 18.425 2.74837 17.6991L3.28952 10.896Z" fill="#07262F"/>
</svg>
