<?xml version="1.0" encoding="UTF-8"?><svg id="Warstwa_1" xmlns="http://www.w3.org/2000/svg" viewBox="0 0 20 22"><defs><style>.cls-1{fill:#a5c3cb;}</style></defs><path class="cls-1" d="M10,19.5c-.2,0-.3,0-.5-.1-.3-.1-.4-.3-.7-.5L3,13.1c-1.8-1.8-2.1-4.8-.5-6.9l.4-.5c.9-1.3,2.4-1.9,4-1.8,1.2,.2,2.4,.9,3.1,2,.7-1.1,1.9-1.8,3.2-1.9,1.6-.2,3.1,.5,4,1.8l.4,.5c1.5,2.1,1.3,5-.5,6.9l-5.9,5.8c-.2,.2-.4,.4-.7,.5-.2-.1-.3,0-.5,0ZM6.3,5.6c-.8,0-1.6,.4-2.2,1.1l-.3,.5c-1.1,1.4-.9,3.4,.4,4.7l5.9,5.8,5.9-5.8c1.3-1.2,1.4-3.3,.4-4.7l-.4-.5c-.6-.8-1.5-1.2-2.5-1.1s-1.8,.7-2.2,1.6c-.4,.5-.8,.8-1.3,.8s-.9-.3-1.2-.8c-.4-.9-1.2-1.5-2.2-1.6h-.3Z"/></svg>