<?xml version="1.0" encoding="utf-8"?>
<!-- Generator: Adobe Illustrator 26.3.1, SVG Export Plug-In . SVG Version: 6.00 Build 0)  -->
<svg version="1.1" id="Warstwa_1" xmlns="http://www.w3.org/2000/svg" xmlns:xlink="http://www.w3.org/1999/xlink" x="0px" y="0px"
	 viewBox="0 0 25 25" style="enable-background:new 0 0 25 25;" xml:space="preserve">
<style type="text/css">
	.st0{fill:#CC533B;}
</style>
<path class="st0" d="M7.2,17.5h3.8c0.7,0,1.3,0.5,1.5,1.1c0,0,0.1,0,0.1,0v-6c0-2.2,0-3.3-0.5-4.1c-0.2-0.3-0.4-0.5-0.7-0.7
	c-0.8-0.5-1.9-0.5-4.1-0.5c-0.7,0-1.1,0-1.4,0.2C5.7,7.4,5.6,7.5,5.6,7.6C5.4,7.8,5.4,8.2,5.4,8.9v6.7c0,0.7,0,1.1,0.2,1.4
	c0.1,0.1,0.1,0.2,0.2,0.2C6.1,17.5,6.4,17.5,7.2,17.5z"/>
<path class="st0" d="M17.8,17.5h-3.8c-0.7,0-1.3,0.5-1.5,1.1c0,0-0.1,0-0.1,0v-6c0-2.2,0-3.3,0.5-4.1c0.2-0.3,0.4-0.5,0.7-0.7
	c0.8-0.5,1.9-0.5,4.1-0.5c0.7,0,1.1,0,1.4,0.2c0.1,0.1,0.2,0.1,0.2,0.2c0.2,0.3,0.2,0.6,0.2,1.4v6.7c0,0.7,0,1.1-0.2,1.4
	c-0.1,0.1-0.1,0.2-0.2,0.2C18.9,17.5,18.6,17.5,17.8,17.5z"/>
<g>
	<path class="st0" d="M12.5,25C5.6,25,0,19.4,0,12.5S5.6,0,12.5,0S25,5.6,25,12.5S19.4,25,12.5,25z M12.5,1C6.2,1,1,6.2,1,12.5
		C1,18.8,6.2,24,12.5,24C18.8,24,24,18.8,24,12.5C24,6.2,18.8,1,12.5,1z"/>
</g>
</svg>
