<svg width="24" height="25" viewBox="0 0 24 25" fill="none" xmlns="http://www.w3.org/2000/svg">
<path d="M6.54221 17.1114H10.3231C11.15 17.1114 11.8203 17.7818 11.8203 18.6087V11.7578C11.8203 9.69379 11.8203 8.66179 11.1791 8.02059C10.5379 7.37939 9.50592 7.37939 7.44193 7.37939H6.5422C5.85421 7.37939 5.51021 7.37939 5.29648 7.59313C5.08275 7.80686 5.08275 8.15086 5.08275 8.83885V15.652C5.08275 16.34 5.08275 16.684 5.29648 16.8977C5.51021 17.1114 5.85421 17.1114 6.54221 17.1114Z" fill="#07262F"/>
<path d="M17.0984 17.1114H13.3175C12.4906 17.1114 11.8203 17.7818 11.8203 18.6087V11.7578C11.8203 9.69379 11.8203 8.66179 12.4615 8.02059C13.1027 7.37939 14.1347 7.37939 16.1987 7.37939H17.0984C17.7864 7.37939 18.1304 7.37939 18.3441 7.59313C18.5579 7.80686 18.5579 8.15086 18.5579 8.83885V15.652C18.5579 16.34 18.5579 16.684 18.3441 16.8977C18.1304 17.1114 17.7864 17.1114 17.0984 17.1114Z" fill="#07262F"/>
<circle cx="11.8203" cy="12.4228" r="11.4554" stroke="#07262F" stroke-width="0.72973"/>
</svg>
