<?xml version="1.0" encoding="utf-8"?>
<!-- Generator: Adobe Illustrator 26.3.1, SVG Export Plug-In . SVG Version: 6.00 Build 0)  -->
<svg version="1.1" id="Warstwa_1" xmlns="http://www.w3.org/2000/svg" xmlns:xlink="http://www.w3.org/1999/xlink" x="0px" y="0px"
	 viewBox="0 0 26 25" style="enable-background:new 0 0 26 25;" xml:space="preserve">
<style type="text/css">
	.st0{fill-rule:evenodd;clip-rule:evenodd;fill:#CC533B;}
	.st1{fill:#CC533B;}
</style>
<path class="st0" d="M7.9,8.9c0-1.9,0-2.8,0.6-3.4c0.6-0.6,1.5-0.6,3.4-0.6h1.5c1.9,0,2.8,0,3.4,0.6c0.6,0.6,0.6,1.5,0.6,3.4v6.3
	c0,1.9,0,2.8-0.6,3.4c-0.6,0.6-1.5,0.6-3.4,0.6h-1.5c-1.9,0-2.8,0-3.4-0.6c-0.6-0.6-0.6-1.5-0.6-3.4V8.9z M10.6,6.5
	c0-0.3,0.2-0.5,0.5-0.5h3.2c0.3,0,0.5,0.2,0.5,0.5c0,0.3-0.2,0.5-0.5,0.5h-3.2C10.8,7,10.6,6.8,10.6,6.5z M12.7,17.6
	c0.4,0,0.8-0.4,0.8-0.8c0-0.4-0.4-0.8-0.8-0.8c-0.4,0-0.8,0.4-0.8,0.8C11.9,17.2,12.3,17.6,12.7,17.6z"/>
<g>
	<path class="st1" d="M12.7,25C5.8,25,0.2,19.4,0.2,12.5S5.8,0,12.7,0c6.9,0,12.5,5.6,12.5,12.5S19.6,25,12.7,25z M12.7,1
		C6.4,1,1.2,6.2,1.2,12.5C1.2,18.8,6.4,24,12.7,24s11.5-5.2,11.5-11.5C24.2,6.2,19,1,12.7,1z"/>
</g>
</svg>
