<?xml version="1.0" encoding="utf-8"?>
<!-- Generator: Adobe Illustrator 26.3.1, SVG Export Plug-In . SVG Version: 6.00 Build 0)  -->
<svg version="1.1" id="Warstwa_1" xmlns="http://www.w3.org/2000/svg" xmlns:xlink="http://www.w3.org/1999/xlink" x="0px" y="0px"
	 viewBox="0 0 24 25" style="enable-background:new 0 0 24 25;" xml:space="preserve">
<style type="text/css">
	.st0{fill-rule:evenodd;clip-rule:evenodd;fill:#737D80;}
	.st1{fill:#737D80;}
</style>
<path class="st0" d="M7.7,8.4c0-1.4,0-2.1,0.4-2.5c0.4-0.4,1.1-0.4,2.5-0.4h3.2c1.4,0,2.1,0,2.5,0.4c0.4,0.4,0.4,1.1,0.4,2.5v7.7
	c0,1.4,0,2.1-0.4,2.5C15.8,19,15.1,19,13.8,19h-3.2c-1.4,0-2.1,0-2.5-0.4c-0.4-0.4-0.4-1.1-0.4-2.5V8.4z M10.3,7
	c0-0.2,0.2-0.4,0.4-0.4h3C13.9,6.6,14,6.8,14,7c0,0.2-0.2,0.4-0.4,0.4h-3C10.5,7.4,10.3,7.2,10.3,7z M12.2,17.5
	c0.4,0,0.8-0.3,0.8-0.8S12.6,16,12.2,16s-0.8,0.3-0.8,0.8S11.8,17.5,12.2,17.5z"/>
<g>
	<path class="st1" d="M12.2,24.2c-6.5,0-11.8-5.3-11.8-11.8S5.7,0.6,12.2,0.6S24,5.9,24,12.4S18.7,24.2,12.2,24.2z M12.2,1.3
		c-6.1,0-11.1,5-11.1,11.1s5,11.1,11.1,11.1s11.1-5,11.1-11.1S18.3,1.3,12.2,1.3z"/>
</g>
</svg>
