<svg width="20" height="20" viewBox="0 0 20 20" fill="none" xmlns="http://www.w3.org/2000/svg">
<path d="M8.70425 5.359C9.34031 3.77331 9.65834 2.98047 10.2052 2.98047C10.7521 2.98047 11.0701 3.77331 11.7062 5.359L11.7358 5.43284C12.0952 6.32868 12.2748 6.77659 12.641 7.04884C13.0072 7.32109 13.4879 7.36414 14.4492 7.45024L14.623 7.46581C16.1965 7.60672 16.9832 7.67718 17.1515 8.17769C17.3198 8.67821 16.7356 9.20975 15.5671 10.2728L15.1771 10.6276C14.5856 11.1658 14.2899 11.4348 14.152 11.7875C14.1263 11.8533 14.1049 11.9207 14.088 11.9893C13.9974 12.3569 14.084 12.7472 14.2572 13.5279L14.3112 13.7709C14.6295 15.2057 14.7887 15.9231 14.5107 16.2325C14.4069 16.3481 14.2719 16.4314 14.122 16.4723C13.7208 16.5818 13.1511 16.1176 12.0118 15.1892C11.2637 14.5796 10.8897 14.2748 10.4602 14.2062C10.2913 14.1793 10.1192 14.1793 9.95023 14.2062C9.52077 14.2748 9.14672 14.5796 8.39862 15.1892C7.25932 16.1176 6.68967 16.5818 6.28844 16.4723C6.13851 16.4314 6.00354 16.3481 5.89969 16.2325C5.62179 15.9231 5.78096 15.2057 6.09929 13.7709L6.1532 13.5279C6.32641 12.7472 6.41302 12.3569 6.32241 11.9893C6.30551 11.9207 6.28413 11.8533 6.25842 11.7875C6.12057 11.4348 5.82482 11.1658 5.23331 10.6276L4.84333 10.2728C3.67485 9.20975 3.09061 8.67821 3.25895 8.17769C3.42728 7.67718 4.21399 7.60672 5.7874 7.46581L5.9612 7.45024C6.92257 7.36414 7.40326 7.32109 7.76944 7.04884C8.13562 6.77659 8.31529 6.32868 8.67463 5.43284L8.70425 5.359Z" stroke="#CE6245" stroke-width="1.61722"/>
</svg>
