<?xml version="1.0" encoding="UTF-8"?><svg id="Layer_1" xmlns="http://www.w3.org/2000/svg" viewBox="0 0 20 20"><defs><style>.cls-1{fill:none;stroke:#a5c3cb;stroke-width:1.62px;}</style></defs><path class="cls-1" d="M8.33,5.84c.52-1.29,.78-1.94,1.2-2.03,.11-.02,.23-.02,.34,0,.42,.09,.68,.74,1.2,2.03,.3,.74,.44,1.1,.72,1.35,.08,.07,.16,.13,.25,.19,.32,.19,.72,.23,1.51,.3,1.35,.12,2.02,.18,2.23,.57,.04,.08,.07,.17,.09,.26,.07,.43-.43,.88-1.42,1.78l-.28,.25c-.46,.42-.7,.63-.83,.9-.08,.16-.13,.33-.16,.5-.04,.29,.03,.6,.16,1.21l.05,.22c.24,1.1,.37,1.65,.21,1.92-.14,.24-.39,.4-.67,.41-.31,.01-.75-.34-1.62-1.05-.57-.47-.86-.7-1.18-.79-.29-.08-.6-.08-.89,0-.32,.09-.61,.33-1.18,.79-.87,.71-1.31,1.07-1.62,1.05-.28-.01-.53-.17-.67-.41-.15-.27-.03-.82,.21-1.92l.05-.22c.14-.61,.2-.92,.16-1.21-.03-.18-.08-.35-.16-.5-.13-.26-.37-.47-.83-.9l-.28-.25c-.99-.9-1.49-1.35-1.42-1.78,.01-.09,.04-.18,.09-.26,.21-.38,.88-.45,2.23-.57,.8-.07,1.2-.11,1.51-.3,.09-.05,.17-.12,.25-.19,.28-.25,.42-.62,.72-1.35Z"/></svg>