<?xml version="1.0" encoding="utf-8"?>
<!-- Generator: Adobe Illustrator 26.3.1, SVG Export Plug-In . SVG Version: 6.00 Build 0)  -->
<svg version="1.1" id="Warstwa_1" xmlns="http://www.w3.org/2000/svg" xmlns:xlink="http://www.w3.org/1999/xlink" x="0px" y="0px"
	 viewBox="0 0 20 22" style="enable-background:new 0 0 20 22;" xml:space="preserve">
<style type="text/css">
	.st0{fill:#373535;}
</style>
<path class="st0" d="M17.6,6.2l-0.4-0.5c-0.9-1.3-2.4-1.9-4-1.8c-1.3,0.1-2.5,0.8-3.2,1.9C9.3,4.8,8.1,4.1,6.8,4
	c-1.6-0.2-3.1,0.5-4,1.8L2.4,6.2c-1.5,2.1-1.3,5,0.5,6.9l5.9,5.8c0.2,0.2,0.4,0.4,0.7,0.5c0.1,0.1,0.3,0.1,0.5,0.1s0.3,0,0.5-0.1
	c0.3-0.1,0.4-0.3,0.7-0.5l5.9-5.8C18.9,11.3,19.1,8.3,17.6,6.2z"/>
</svg>
