<svg width="20" height="20" viewBox="0 0 20 20" fill="none" xmlns="http://www.w3.org/2000/svg">
<path d="M8.33469 5.83819C8.85388 4.54386 9.11348 3.89669 9.53523 3.80699C9.64613 3.78341 9.76075 3.78341 9.87164 3.80699C10.2934 3.89669 10.553 4.54386 11.0722 5.83819C11.3674 6.57426 11.5151 6.94229 11.7913 7.19261C11.8688 7.26282 11.9529 7.32535 12.0424 7.37933C12.3617 7.57176 12.7603 7.60745 13.5574 7.67884C14.9068 7.79969 15.5815 7.86011 15.7875 8.2448C15.8302 8.32447 15.8592 8.41074 15.8733 8.5C15.9416 8.93102 15.4456 9.38227 14.4536 10.2848L14.1782 10.5354C13.7144 10.9573 13.4825 11.1683 13.3484 11.4316C13.2679 11.5895 13.214 11.7596 13.1887 11.9351C13.1465 12.2275 13.2144 12.5336 13.3503 13.1457L13.3988 13.3644C13.6423 14.4621 13.7641 15.011 13.6121 15.2807C13.4755 15.5231 13.224 15.6782 12.9462 15.6915C12.6369 15.7063 12.201 15.3511 11.3294 14.6408C10.7551 14.1729 10.468 13.9389 10.1492 13.8475C9.85789 13.764 9.54898 13.764 9.25768 13.8475C8.93892 13.9389 8.65178 14.1729 8.07749 14.6408C7.20583 15.3511 6.77 15.7063 6.46069 15.6915C6.18285 15.6782 5.93133 15.5231 5.79478 15.2807C5.64277 15.011 5.76455 14.4621 6.0081 13.3644L6.05662 13.1457C6.19243 12.5336 6.26033 12.2275 6.21819 11.9351C6.19292 11.7596 6.13897 11.5895 6.05851 11.4316C5.92438 11.1683 5.6925 10.9573 5.22872 10.5354L4.95325 10.2848C3.96125 9.38227 3.46525 8.93102 3.53356 8.5C3.54771 8.41074 3.57672 8.32447 3.61939 8.2448C3.82542 7.86011 4.50012 7.79969 5.8495 7.67884C6.64662 7.60745 7.04517 7.57176 7.36445 7.37933C7.454 7.32535 7.5381 7.26282 7.61558 7.19261C7.89182 6.94229 8.03944 6.57426 8.33469 5.83819Z" fill="#CE6245" stroke="#CE6245" stroke-width="1.61722"/>
</svg>
