<svg width="152" height="24" viewBox="0 0 152 24" fill="none" xmlns="http://www.w3.org/2000/svg">
<path d="M138.144 6.62753C138.931 4.66653 139.324 3.68604 140.001 3.68604C140.677 3.68604 141.07 4.66653 141.857 6.62753L141.893 6.71885C142.338 7.82672 142.56 8.38065 143.013 8.71734C143.466 9.05403 144.06 9.10727 145.249 9.21374L145.464 9.23299C147.41 9.40726 148.383 9.49439 148.591 10.1134C148.799 10.7324 148.077 11.3897 146.632 12.7044L146.149 13.1432C145.418 13.8087 145.052 14.1414 144.882 14.5776C144.85 14.6589 144.823 14.7423 144.802 14.8271C144.69 15.2817 144.797 15.7645 145.012 16.7299L145.078 17.0305C145.472 18.8048 145.669 19.692 145.325 20.0746C145.197 20.2176 145.03 20.3206 144.844 20.3712C144.348 20.5066 143.644 19.9325 142.235 18.7844C141.31 18.0305 140.847 17.6536 140.316 17.5688C140.107 17.5354 139.894 17.5354 139.685 17.5688C139.154 17.6536 138.692 18.0305 137.766 18.7844C136.357 19.9325 135.653 20.5066 135.157 20.3712C134.971 20.3206 134.804 20.2176 134.676 20.0746C134.332 19.692 134.529 18.8048 134.923 17.0305L134.99 16.7299C135.204 15.7645 135.311 15.2817 135.199 14.8271C135.178 14.7423 135.151 14.6589 135.12 14.5776C134.949 14.1414 134.583 13.8087 133.852 13.1432L133.37 12.7044C131.925 11.3897 131.202 10.7324 131.41 10.1134C131.618 9.49439 132.591 9.40726 134.537 9.23299L134.752 9.21374C135.941 9.10727 136.535 9.05403 136.988 8.71734C137.441 8.38065 137.663 7.82672 138.108 6.71885L138.144 6.62753Z" stroke="#CE6245" stroke-width="2"/>
<path d="M106.307 7.21986C106.949 5.61918 107.27 4.81883 107.791 4.70791C107.928 4.67874 108.07 4.67874 108.207 4.70791C108.729 4.81883 109.05 5.61918 109.692 7.21986C110.057 8.13014 110.24 8.58528 110.581 8.89485C110.677 8.98168 110.781 9.05901 110.892 9.12576C111.287 9.36374 111.78 9.40788 112.765 9.49617C114.434 9.64562 115.268 9.72034 115.523 10.1961C115.576 10.2946 115.612 10.4013 115.629 10.5117C115.714 11.0447 115.101 11.6028 113.874 12.7189L113.533 13.0288C112.959 13.5506 112.673 13.8115 112.507 14.1372C112.407 14.3325 112.341 14.5428 112.309 14.7598C112.257 15.1215 112.341 15.5 112.509 16.2569L112.569 16.5274C112.87 17.8849 113.021 18.5637 112.833 18.8973C112.664 19.197 112.353 19.3889 112.009 19.4053C111.627 19.4236 111.088 18.9844 110.01 18.106C109.3 17.5273 108.945 17.2379 108.55 17.1249C108.19 17.0216 107.808 17.0216 107.448 17.1249C107.054 17.2379 106.699 17.5273 105.988 18.106C104.91 18.9844 104.371 19.4236 103.989 19.4053C103.645 19.3889 103.334 19.197 103.165 18.8973C102.977 18.5637 103.128 17.8849 103.429 16.5274L103.489 16.2569C103.657 15.5 103.741 15.1215 103.689 14.7598C103.658 14.5428 103.591 14.3325 103.492 14.1372C103.326 13.8115 103.039 13.5506 102.465 13.0288L102.125 12.7189C100.898 11.6028 100.285 11.0447 100.369 10.5117C100.387 10.4013 100.422 10.2946 100.475 10.1961C100.73 9.72034 101.564 9.64562 103.233 9.49617C104.219 9.40788 104.712 9.36374 105.107 9.12576C105.217 9.05901 105.321 8.98168 105.417 8.89485C105.759 8.58528 105.941 8.13014 106.307 7.21986Z" fill="#CE6245" stroke="#CE6245" stroke-width="2"/>
<path d="M74.3065 7.21986C74.9486 5.61918 75.2696 4.81883 75.7912 4.70791C75.9283 4.67874 76.0701 4.67874 76.2072 4.70791C76.7288 4.81883 77.0499 5.61918 77.6919 7.21986C78.0571 8.13014 78.2396 8.58528 78.5812 8.89485C78.6771 8.98168 78.7811 9.05901 78.8918 9.12576C79.2867 9.36374 79.7796 9.40788 80.7653 9.49617C82.4341 9.64562 83.2685 9.72034 83.5233 10.1961C83.5761 10.2946 83.6119 10.4013 83.6294 10.5117C83.7139 11.0447 83.1005 11.6028 81.8737 12.7189L81.533 13.0288C80.9595 13.5506 80.6727 13.8115 80.5069 14.1372C80.4074 14.3325 80.3406 14.5428 80.3094 14.7598C80.2573 15.1215 80.3412 15.5 80.5092 16.2569L80.5692 16.5274C80.8704 17.8849 81.021 18.5637 80.833 18.8973C80.6641 19.197 80.3531 19.3889 80.0095 19.4053C79.627 19.4236 79.088 18.9844 78.01 18.106C77.2998 17.5273 76.9447 17.2379 76.5505 17.1249C76.1902 17.0216 75.8082 17.0216 75.448 17.1249C75.0538 17.2379 74.6986 17.5273 73.9884 18.106C72.9105 18.9844 72.3715 19.4236 71.989 19.4053C71.6454 19.3889 71.3343 19.197 71.1654 18.8973C70.9774 18.5637 71.128 17.8849 71.4292 16.5274L71.4892 16.2569C71.6572 15.5 71.7412 15.1215 71.6891 14.7598C71.6578 14.5428 71.5911 14.3325 71.4916 14.1372C71.3257 13.8115 71.0389 13.5506 70.4654 13.0288L70.1247 12.7189C68.8979 11.6028 68.2845 11.0447 68.369 10.5117C68.3865 10.4013 68.4224 10.2946 68.4752 10.1961C68.73 9.72034 69.5643 9.64562 71.2331 9.49617C72.2189 9.40788 72.7118 9.36374 73.1066 9.12576C73.2174 9.05901 73.3214 8.98168 73.4172 8.89485C73.7588 8.58528 73.9414 8.13014 74.3065 7.21986Z" fill="#CE6245" stroke="#CE6245" stroke-width="2"/>
<path d="M42.3065 7.21986C42.9486 5.61918 43.2696 4.81883 43.7912 4.70791C43.9283 4.67874 44.0701 4.67874 44.2072 4.70791C44.7288 4.81883 45.0499 5.61918 45.6919 7.21986C46.0571 8.13014 46.2396 8.58528 46.5812 8.89485C46.6771 8.98168 46.7811 9.05901 46.8918 9.12576C47.2867 9.36374 47.7796 9.40788 48.7653 9.49617C50.4341 9.64562 51.2685 9.72034 51.5233 10.1961C51.5761 10.2946 51.6119 10.4013 51.6294 10.5117C51.7139 11.0447 51.1005 11.6028 49.8737 12.7189L49.533 13.0288C48.9595 13.5506 48.6727 13.8115 48.5069 14.1372C48.4074 14.3325 48.3406 14.5428 48.3094 14.7598C48.2573 15.1215 48.3412 15.5 48.5092 16.2569L48.5692 16.5274C48.8704 17.8849 49.021 18.5637 48.833 18.8973C48.6641 19.197 48.3531 19.3889 48.0095 19.4053C47.627 19.4236 47.088 18.9844 46.01 18.106C45.2998 17.5273 44.9447 17.2379 44.5505 17.1249C44.1902 17.0216 43.8082 17.0216 43.448 17.1249C43.0538 17.2379 42.6986 17.5273 41.9884 18.106C40.9105 18.9844 40.3715 19.4236 39.989 19.4053C39.6454 19.3889 39.3343 19.197 39.1654 18.8973C38.9774 18.5637 39.128 17.8849 39.4292 16.5274L39.4892 16.2569C39.6572 15.5 39.7412 15.1215 39.6891 14.7598C39.6578 14.5428 39.5911 14.3325 39.4916 14.1372C39.3257 13.8115 39.0389 13.5506 38.4654 13.0288L38.1247 12.7189C36.8979 11.6028 36.2845 11.0447 36.369 10.5117C36.3865 10.4013 36.4224 10.2946 36.4752 10.1961C36.73 9.72034 37.5643 9.64562 39.2331 9.49617C40.2189 9.40788 40.7118 9.36374 41.1066 9.12576C41.2174 9.05901 41.3214 8.98168 41.4172 8.89485C41.7588 8.58528 41.9414 8.13014 42.3065 7.21986Z" fill="#CE6245" stroke="#CE6245" stroke-width="2"/>
<path d="M10.3065 7.21986C10.9486 5.61918 11.2696 4.81883 11.7912 4.70791C11.9283 4.67874 12.0701 4.67874 12.2072 4.70791C12.7288 4.81883 13.0499 5.61918 13.6919 7.21986C14.0571 8.13014 14.2396 8.58528 14.5812 8.89485C14.6771 8.98168 14.7811 9.05901 14.8918 9.12576C15.2867 9.36374 15.7796 9.40788 16.7653 9.49617C18.4341 9.64562 19.2685 9.72034 19.5233 10.1961C19.5761 10.2946 19.6119 10.4013 19.6294 10.5117C19.7139 11.0447 19.1005 11.6028 17.8737 12.7189L17.533 13.0288C16.9595 13.5506 16.6727 13.8115 16.5069 14.1372C16.4074 14.3325 16.3406 14.5428 16.3094 14.7598C16.2573 15.1215 16.3412 15.5 16.5092 16.2569L16.5692 16.5274C16.8704 17.8849 17.021 18.5637 16.833 18.8973C16.6641 19.197 16.3531 19.3889 16.0095 19.4053C15.627 19.4236 15.088 18.9844 14.01 18.106C13.2998 17.5273 12.9447 17.2379 12.5505 17.1249C12.1902 17.0216 11.8082 17.0216 11.448 17.1249C11.0538 17.2379 10.6986 17.5273 9.98844 18.106C8.91046 18.9844 8.37147 19.4236 7.98895 19.4053C7.64535 19.3889 7.33431 19.197 7.16544 18.8973C6.97745 18.5637 7.12805 17.8849 7.42924 16.5274L7.48925 16.2569C7.6572 15.5 7.74118 15.1215 7.68907 14.7598C7.65781 14.5428 7.59109 14.3325 7.49159 14.1372C7.32572 13.8115 7.03894 13.5506 6.4654 13.0288L6.12473 12.7189C4.89794 11.6028 4.28454 11.0447 4.36902 10.5117C4.38651 10.4013 4.42239 10.2946 4.47516 10.1961C4.72996 9.72034 5.56434 9.64562 7.2331 9.49617C8.21889 9.40788 8.71178 9.36374 9.10662 9.12576C9.21737 9.05901 9.32138 8.98168 9.4172 8.89485C9.75881 8.58528 9.94138 8.13014 10.3065 7.21986Z" fill="#CE6245" stroke="#CE6245" stroke-width="2"/>
</svg>
