<svg width="27" height="27" viewBox="0 0 27 27" fill="none" xmlns="http://www.w3.org/2000/svg">
<path d="M19.7501 1H7.25004C3.79824 1 1 3.79824 1 7.25004V19.7501C1 23.2019 3.79824 26.0002 7.25004 26.0002H19.7501C23.2019 26.0002 26.0002 23.2019 26.0002 19.7501V7.25004C26.0002 3.79824 23.2019 1 19.7501 1Z" stroke="#C4C4C4" stroke-width="2" stroke-linecap="round" stroke-linejoin="round"/>
<path d="M18.4992 12.7124C18.6535 13.7527 18.4758 14.8152 17.9914 15.7487C17.507 16.6822 16.7406 17.4392 15.8012 17.912C14.8618 18.3849 13.7972 18.5494 12.7589 18.3824C11.7206 18.2153 10.7614 17.725 10.0177 16.9814C9.27405 16.2377 8.78381 15.2785 8.61673 14.2402C8.44965 13.2019 8.61423 12.1373 9.08706 11.1979C9.55989 10.2585 10.3169 9.49207 11.2504 9.00769C12.1839 8.52332 13.2464 8.34562 14.2867 8.49989C15.3478 8.65725 16.3303 9.15172 17.0888 9.91028C17.8474 10.6688 18.3418 11.6513 18.4992 12.7124Z" stroke="#C4C4C4" stroke-width="2" stroke-linecap="round" stroke-linejoin="round"/>
<path d="M20.3745 6.625H20.3863" stroke="#C4C4C4" stroke-width="2" stroke-linecap="round" stroke-linejoin="round"/>
</svg>
