<?xml version="1.0" encoding="utf-8"?>
<!-- Generator: Adobe Illustrator 26.3.1, SVG Export Plug-In . SVG Version: 6.00 Build 0)  -->
<svg version="1.1" id="Warstwa_1" xmlns="http://www.w3.org/2000/svg" xmlns:xlink="http://www.w3.org/1999/xlink" x="0px" y="0px"
	 viewBox="0 0 17 16" style="enable-background:new 0 0 17 16;" xml:space="preserve">
<style type="text/css">
	.st0{fill:#373535;}
</style>
<path class="st0" d="M4.8,16H1.5c-0.1,0-0.3-0.1-0.3-0.3V0.3C1.2,0.1,1.4,0,1.5,0h3.3C4.9,0,5,0.1,5,0.3v15.5C5,15.9,4.9,16,4.8,16z
	"/>
<path class="st0" d="M10.2,16H7c-0.1,0-0.3-0.1-0.3-0.3V8.7c0-0.1,0.1-0.3,0.3-0.3h3.3c0.1,0,0.3,0.1,0.3,0.3v7.1
	C10.5,15.9,10.4,16,10.2,16z"/>
<path class="st0" d="M15.7,16h-3.3c-0.1,0-0.3-0.1-0.3-0.3v-12c0-0.1,0.1-0.3,0.3-0.3h3.3c0.1,0,0.3,0.1,0.3,0.3v12
	C15.9,15.9,15.8,16,15.7,16z"/>
</svg>
